<?xml version="1.0" encoding="UTF-8"?>
<!DOCTYPE svg PUBLIC "-//W3C//DTD SVG 1.1//EN" "http://www.w3.org/Graphics/SVG/1.1/DTD/svg11.dtd">
<svg xmlns="http://www.w3.org/2000/svg" version="1.1" width="256px" height="256px" style="shape-rendering:geometricPrecision; text-rendering:geometricPrecision; image-rendering:optimizeQuality; fill-rule:evenodd; clip-rule:evenodd" xmlns:xlink="http://www.w3.org/1999/xlink">
<g><path style="opacity:0.977" fill="#05b9ff" d="M 171.5,30.5 C 157.171,31.1666 142.671,31.4999 128,31.5C 113.151,31.4994 98.6509,30.8327 84.5,29.5C 95.4728,23.3454 106.473,17.1787 117.5,11C 125.018,6.18664 132.352,6.51998 139.5,12C 150.335,18.0302 161.002,24.1969 171.5,30.5 Z"/></g>
<g><path style="opacity:0.986" fill="#0bb2ff" d="M 84.5,29.5 C 98.6509,30.8327 113.151,31.4994 128,31.5C 142.671,31.4999 157.171,31.1666 171.5,30.5C 181.86,35.6758 191.86,41.3425 201.5,47.5C 152.33,47.8322 103.33,47.4988 54.5,46.5C 64.5,40.8333 74.5,35.1667 84.5,29.5 Z"/></g>
<g><path style="opacity:0.993" fill="#15abff" d="M 54.5,46.5 C 103.33,47.4988 152.33,47.8322 201.5,47.5C 209.428,51.4411 217.095,55.7744 224.5,60.5C 204.167,61.1667 183.833,61.8333 163.5,62.5C 154.364,57.8287 150.197,60.4953 151,70.5C 151.997,72.3231 153.164,73.9897 154.5,75.5C 148.409,75.2114 142.409,75.5447 136.5,76.5C 137.973,72.6118 138.473,68.6118 138,64.5C 133.428,59.1881 128.761,59.1881 124,64.5C 123.119,68.7085 121.953,72.7085 120.5,76.5C 114.021,75.5093 107.354,75.176 100.5,75.5C 104.088,72.2622 105.255,68.2622 104,63.5C 100.026,60.0007 95.8593,59.6673 91.5,62.5C 71.1667,61.8333 50.8333,61.1667 30.5,60.5C 38.2184,55.4698 46.2184,50.8031 54.5,46.5 Z"/></g>
<g><path style="opacity:0.989" fill="#16a5ff" d="M 30.5,60.5 C 50.8333,61.1667 71.1667,61.8333 91.5,62.5C 87.1667,67.5 82.5,72.1667 77.5,76.5C 53.0056,75.5023 28.339,75.169 3.5,75.5C 12.2403,70.1071 21.2403,65.1071 30.5,60.5 Z"/></g>
<g><path style="opacity:1" fill="#e7f4ff" d="M 100.5,75.5 C 97.8544,77.4789 95.5211,79.8122 93.5,82.5C 96.8176,86.3181 100.318,89.9848 104,93.5C 106.156,101.167 103.322,104.834 95.5,104.5C 89.5563,99.8943 83.8896,94.8943 78.5,89.5C 74.9495,85.4262 74.6162,81.0928 77.5,76.5C 82.5,72.1667 87.1667,67.5 91.5,62.5C 95.8593,59.6673 100.026,60.0007 104,63.5C 105.255,68.2622 104.088,72.2622 100.5,75.5 Z"/></g>
<g><path style="opacity:1" fill="#e6f4ff" d="M 136.5,76.5 C 134.514,84.1119 132.681,91.7786 131,99.5C 128.087,104.689 123.92,105.856 118.5,103C 116.571,99.7441 116.071,96.2441 117,92.5C 118.487,87.2212 119.653,81.8879 120.5,76.5C 121.953,72.7085 123.119,68.7085 124,64.5C 128.761,59.1881 133.428,59.1881 138,64.5C 138.473,68.6118 137.973,72.6118 136.5,76.5 Z"/></g>
<g><path style="opacity:1" fill="#e7f4ff" d="M 163.5,62.5 C 167.833,67.5 172.5,72.1667 177.5,76.5C 180.384,81.0928 180.05,85.4262 176.5,89.5C 171.11,94.8943 165.444,99.8943 159.5,104.5C 151.678,104.834 148.844,101.167 151,93.5C 154.682,89.9848 158.182,86.3181 161.5,82.5C 159.479,79.8122 157.146,77.4789 154.5,75.5C 153.164,73.9897 151.997,72.3231 151,70.5C 150.197,60.4953 154.364,57.8287 163.5,62.5 Z"/></g>
<g><path style="opacity:0.988" fill="#16a5ff" d="M 224.5,60.5 C 233.76,65.1071 242.76,70.1071 251.5,75.5C 226.661,75.169 201.994,75.5023 177.5,76.5C 172.5,72.1667 167.833,67.5 163.5,62.5C 183.833,61.8333 204.167,61.1667 224.5,60.5 Z"/></g>
<g><path style="opacity:0.995" fill="#1b9fff" d="M 3.5,75.5 C 28.339,75.169 53.0056,75.5023 77.5,76.5C 74.6162,81.0928 74.9495,85.4262 78.5,89.5C 53.5,89.5 28.5,89.5 3.5,89.5C 1.85946,88.853 0.526127,87.853 -0.5,86.5C -0.5,83.8333 -0.5,81.1667 -0.5,78.5C 0.526127,77.147 1.85946,76.147 3.5,75.5 Z"/></g>
<g><path style="opacity:0.994" fill="#1b9fff" d="M 251.5,75.5 C 253.141,76.147 254.474,77.147 255.5,78.5C 255.5,81.1667 255.5,83.8333 255.5,86.5C 253.853,88.3264 251.853,89.6597 249.5,90.5C 225.339,89.5024 201.006,89.169 176.5,89.5C 180.05,85.4262 180.384,81.0928 177.5,76.5C 201.994,75.5023 226.661,75.169 251.5,75.5 Z"/></g>
<g><path style="opacity:0.993" fill="#2198ff" d="M 3.5,89.5 C 28.5,89.5 53.5,89.5 78.5,89.5C 83.8896,94.8943 89.5563,99.8943 95.5,104.5C 95.5,104.833 95.5,105.167 95.5,105.5C 74.9931,105.17 54.6598,105.503 34.5,106.5C 33.2921,105.766 31.9587,105.433 30.5,105.5C 21.5,100.167 12.5,94.8333 3.5,89.5 Z"/></g>
<g><path style="opacity:1" fill="#259cff" d="M 100.5,75.5 C 107.354,75.176 114.021,75.5093 120.5,76.5C 119.653,81.8879 118.487,87.2212 117,92.5C 116.071,96.2441 116.571,99.7441 118.5,103C 123.92,105.856 128.087,104.689 131,99.5C 132.681,91.7786 134.514,84.1119 136.5,76.5C 142.409,75.5447 148.409,75.2114 154.5,75.5C 157.146,77.4789 159.479,79.8122 161.5,82.5C 158.182,86.3181 154.682,89.9848 151,93.5C 148.844,101.167 151.678,104.834 159.5,104.5C 159.5,104.833 159.5,105.167 159.5,105.5C 138.167,105.5 116.833,105.5 95.5,105.5C 95.5,105.167 95.5,104.833 95.5,104.5C 103.322,104.834 106.156,101.167 104,93.5C 100.318,89.9848 96.8176,86.3181 93.5,82.5C 95.5211,79.8122 97.8544,77.4789 100.5,75.5 Z"/></g>
<g><path style="opacity:0.993" fill="#2198ff" d="M 176.5,89.5 C 201.006,89.169 225.339,89.5024 249.5,90.5C 241.332,95.7516 232.999,100.752 224.5,105.5C 223.041,105.433 221.708,105.766 220.5,106.5C 200.34,105.503 180.007,105.17 159.5,105.5C 159.5,105.167 159.5,104.833 159.5,104.5C 165.444,99.8943 171.11,94.8943 176.5,89.5 Z"/></g>
<g><path style="opacity:0.987" fill="#e8f5ff" d="M 30.5,105.5 C 31.9587,105.433 33.2921,105.766 34.5,106.5C 42.6717,111.42 51.005,116.087 59.5,120.5C 67.6717,125.42 76.005,130.087 84.5,134.5C 86.3325,135.248 87.9991,136.248 89.5,137.5C 63.3386,138.498 37.0053,138.831 10.5,138.5C 6.28865,136.902 2.62198,134.568 -0.5,131.5C -0.5,128.833 -0.5,126.167 -0.5,123.5C 9.33403,116.746 19.6674,110.746 30.5,105.5 Z"/></g>
<g><path style="opacity:1" fill="#2593ff" d="M 34.5,106.5 C 54.6598,105.503 74.9931,105.17 95.5,105.5C 116.833,105.5 138.167,105.5 159.5,105.5C 180.007,105.17 200.34,105.503 220.5,106.5C 212.328,111.42 203.995,116.087 195.5,120.5C 150.167,119.167 104.833,119.167 59.5,120.5C 51.005,116.087 42.6717,111.42 34.5,106.5 Z"/></g>
<g><path style="opacity:0.987" fill="#e8f5ff" d="M 224.5,105.5 C 235.333,110.746 245.666,116.746 255.5,123.5C 255.5,126.167 255.5,128.833 255.5,131.5C 251.881,134.65 247.881,137.316 243.5,139.5C 217.5,138.833 191.5,138.167 165.5,137.5C 167.001,136.248 168.668,135.248 170.5,134.5C 178.995,130.087 187.328,125.42 195.5,120.5C 203.995,116.087 212.328,111.42 220.5,106.5C 221.708,105.766 223.041,105.433 224.5,105.5 Z"/></g>
<g><path style="opacity:1" fill="#2b8dff" d="M 59.5,120.5 C 104.833,119.167 150.167,119.167 195.5,120.5C 187.328,125.42 178.995,130.087 170.5,134.5C 141.833,133.167 113.167,133.167 84.5,134.5C 76.005,130.087 67.6717,125.42 59.5,120.5 Z"/></g>
<g><path style="opacity:1" fill="#3186ff" d="M 84.5,134.5 C 113.167,133.167 141.833,133.167 170.5,134.5C 168.668,135.248 167.001,136.248 165.5,137.5C 157.005,141.913 148.672,146.58 140.5,151.5C 136.457,154.436 131.957,156.436 127,157.5C 122.492,156.145 118.325,154.145 114.5,151.5C 106.328,146.58 97.995,141.913 89.5,137.5C 87.9991,136.248 86.3325,135.248 84.5,134.5 Z"/></g>
<g><path style="opacity:0.995" fill="#def0ff" d="M 89.5,137.5 C 97.995,141.913 106.328,146.58 114.5,151.5C 89.0054,152.498 63.3388,152.831 37.5,152.5C 35.2543,151.545 32.921,150.878 30.5,150.5C 23.8333,146.5 17.1667,142.5 10.5,138.5C 37.0053,138.831 63.3386,138.498 89.5,137.5 Z"/></g>
<g><path style="opacity:0.996" fill="#ddf0ff" d="M 165.5,137.5 C 191.5,138.167 217.5,138.833 243.5,139.5C 236.968,142.929 230.634,146.596 224.5,150.5C 222.079,150.878 219.746,151.545 217.5,152.5C 191.661,152.831 165.995,152.498 140.5,151.5C 148.672,146.58 157.005,141.913 165.5,137.5 Z"/></g>
<g><path style="opacity:1" fill="#d6edff" d="M 114.5,151.5 C 118.325,154.145 122.492,156.145 127,157.5C 131.957,156.436 136.457,154.436 140.5,151.5C 165.995,152.498 191.661,152.831 217.5,152.5C 213.167,155.669 208.5,158.336 203.5,160.5C 152.833,160.5 102.167,160.5 51.5,160.5C 46.4997,158.336 41.833,155.669 37.5,152.5C 63.3388,152.831 89.0054,152.498 114.5,151.5 Z"/></g>
<g><path style="opacity:1" fill="#cfeaff" d="M 51.5,160.5 C 102.167,160.5 152.833,160.5 203.5,160.5C 194.167,166.167 184.833,171.833 175.5,177.5C 174.167,177.833 172.833,178.167 171.5,178.5C 142.167,178.5 112.833,178.5 83.5,178.5C 82.391,178.443 81.391,178.11 80.5,177.5C 70.669,172.086 61.0023,166.419 51.5,160.5 Z"/></g>
<g><path style="opacity:0.996" fill="#3a7aff" d="M 30.5,150.5 C 32.921,150.878 35.2543,151.545 37.5,152.5C 41.833,155.669 46.4997,158.336 51.5,160.5C 61.0023,166.419 70.669,172.086 80.5,177.5C 53.8333,177.5 27.1667,177.5 0.5,177.5C 0.5,176.833 0.166667,176.5 -0.5,176.5C -0.5,173.833 -0.5,171.167 -0.5,168.5C 9.30651,161.758 19.6398,155.758 30.5,150.5 Z"/></g>
<g><path style="opacity:0.996" fill="#3a7aff" d="M 224.5,150.5 C 235.333,155.746 245.666,161.746 255.5,168.5C 255.5,171.167 255.5,173.833 255.5,176.5C 254.833,176.5 254.5,176.833 254.5,177.5C 228.167,177.5 201.833,177.5 175.5,177.5C 184.833,171.833 194.167,166.167 203.5,160.5C 208.5,158.336 213.167,155.669 217.5,152.5C 219.746,151.545 222.079,150.878 224.5,150.5 Z"/></g>
<g><path style="opacity:1" fill="#c1e4ff" d="M 83.5,178.5 C 112.833,178.5 142.167,178.5 171.5,178.5C 164.833,182.5 158.167,186.5 151.5,190.5C 143.753,195.04 135.753,199.04 127.5,202.5C 119.247,199.04 111.247,195.04 103.5,190.5C 96.8333,186.5 90.1667,182.5 83.5,178.5 Z"/></g>
<g><path style="opacity:0.993" fill="#3f73ff" d="M 0.5,177.5 C 27.1667,177.5 53.8333,177.5 80.5,177.5C 81.391,178.11 82.391,178.443 83.5,178.5C 90.1667,182.5 96.8333,186.5 103.5,190.5C 76.9947,190.169 50.6614,190.502 24.5,191.5C 16.1364,187.323 8.13639,182.656 0.5,177.5 Z"/></g>
<g><path style="opacity:0.99" fill="#3f73ff" d="M 175.5,177.5 C 201.833,177.5 228.167,177.5 254.5,177.5C 246.864,182.656 238.864,187.323 230.5,191.5C 204.339,190.502 178.005,190.169 151.5,190.5C 158.167,186.5 164.833,182.5 171.5,178.5C 172.833,178.167 174.167,177.833 175.5,177.5 Z"/></g>
<g><path style="opacity:0.994" fill="#446dff" d="M 24.5,191.5 C 50.6614,190.502 76.9947,190.169 103.5,190.5C 111.247,195.04 119.247,199.04 127.5,202.5C 135.753,199.04 143.753,195.04 151.5,190.5C 178.005,190.169 204.339,190.502 230.5,191.5C 222.363,196.405 214.03,201.071 205.5,205.5C 153.336,204.501 101.003,204.168 48.5,204.5C 40.2077,200.688 32.2077,196.354 24.5,191.5 Z"/></g>
<g><path style="opacity:0.99" fill="#4767ff" d="M 48.5,204.5 C 101.003,204.168 153.336,204.501 205.5,205.5C 198.495,210.005 191.161,214.005 183.5,217.5C 146.167,217.5 108.833,217.5 71.5,217.5C 63.3388,213.923 55.6722,209.589 48.5,204.5 Z"/></g>
<g><path style="opacity:0.982" fill="#4e60ff" d="M 71.5,217.5 C 108.833,217.5 146.167,217.5 183.5,217.5C 169.06,226.226 154.393,234.726 139.5,243C 132.352,248.48 125.018,248.813 117.5,244C 101.941,235.392 86.6073,226.559 71.5,217.5 Z"/></g>
</svg>
